HIERARCHY
ROOT Hips
{
 OFFSET 0.000000 0.000000 0.000000
 CHANNELS 6 Xposition Yposition Zposition Yrotation Xrotation Zrotation
 JOINT Chest
 {
  OFFSET 0.000000 9.303000 0.001900
  CHANNELS 3 Yrotation Xrotation Zrotation
  JOINT Chest2
  {
   OFFSET 0.000000 9.301100 -0.003900
   CHANNELS 3 Yrotation Xrotation Zrotation
   JOINT Chest3
   {
    OFFSET 0.000000 9.262800 0.000000
    CHANNELS 3 Yrotation Xrotation Zrotation
    JOINT Chest4
    {
     OFFSET 0.000000 9.253300 0.000000
     CHANNELS 3 Yrotation Xrotation Zrotation
     JOINT Neck
     {
      OFFSET 0.000000 14.010300 0.000000
      CHANNELS 3 Yrotation Xrotation Zrotation
      JOINT Head
      {
       OFFSET 0.000000 8.657600 -0.008300
       CHANNELS 3 Yrotation Xrotation Zrotation
       End Site
       {
        OFFSET 0.000000 16.540200 -0.004400
       }
      }
     }
     JOINT RightCollar
     {
      OFFSET -2.834100 9.267700 0.000000
      CHANNELS 3 Yrotation Xrotation Zrotation
      JOINT RightShoulder
      {
       OFFSET -13.135200 0.000000 0.000000
       CHANNELS 3 Yrotation Xrotation Zrotation
       JOINT RightElbow
       {
        OFFSET 0.000000 -28.893500 0.000000
        CHANNELS 3 Yrotation Xrotation Zrotation
        JOINT RightWrist
        {
         OFFSET 0.000000 -23.344000 0.000000
         CHANNELS 3 Yrotation Xrotation Zrotation
         End Site
         {
          OFFSET 0.000000 -17.223000 0.000000
         }
        }
       }
      }
     }
     JOINT LeftCollar
     {
      OFFSET 2.834100 9.267700 0.000000
      CHANNELS 3 Yrotation Xrotation Zrotation
      JOINT LeftShoulder
      {
       OFFSET 13.135200 0.000000 0.000000
       CHANNELS 3 Yrotation Xrotation Zrotation
       JOINT LeftElbow
       {
        OFFSET 0.000000 -28.893500 0.000000
        CHANNELS 3 Yrotation Xrotation Zrotation
        JOINT LeftWrist
        {
         OFFSET 0.000000 -23.344000 0.000000
         CHANNELS 3 Yrotation Xrotation Zrotation
         End Site
         {
          OFFSET 0.000000 -17.223000 0.000000
         }
        }
       }
      }
     }
    }
   }
  }
 }
 JOINT RightHip
 {
  OFFSET -7.547200 -0.009500 -0.001000
  CHANNELS 3 Yrotation Xrotation Zrotation
  JOINT RightKnee
  {
   OFFSET 0.000000 -39.762800 0.000900
   CHANNELS 3 Yrotation Xrotation Zrotation
   JOINT RightAnkle
   {
    OFFSET 0.000000 -38.588200 0.001600
    CHANNELS 3 Yrotation Xrotation Zrotation
    JOINT RightToe
    {
     OFFSET 0.000000 -4.693300 10.419700
     CHANNELS 3 Yrotation Xrotation Zrotation
     End Site
     {
      OFFSET 0.000000 -1.379900 5.669300
     }
    }
   }
  }
 }
 JOINT LeftHip
 {
  OFFSET 7.547200 -0.009500 -0.001000
  CHANNELS 3 Yrotation Xrotation Zrotation
  JOINT LeftKnee
  {
   OFFSET 0.000000 -39.762800 0.000900
   CHANNELS 3 Yrotation Xrotation Zrotation
   JOINT LeftAnkle
   {
    OFFSET 0.000000 -38.588200 0.001600
    CHANNELS 3 Yrotation Xrotation Zrotation
    JOINT LeftToe
    {
     OFFSET 0.000000 -4.693300 10.419700
     CHANNELS 3 Yrotation Xrotation Zrotation
     End Site
     {
      OFFSET 0.000000 -1.379900 5.669300
     }
    }
   }
  }
 }
}
MOTION
Frames: 5
Frame Time: 0.008333
4.346902 45.124318 11.598306 174.106066 -23.114699 1.314251 9.102323 11.042318 1.778871 0.731044 0.919135 0.089787 1.239265 1.556263 0.159085 7.938709 9.713473 1.574141 3.053457 26.671377 -2.806970 3.998655 3.626643 -3.783691 12.832075 2.497040 -4.499673 2.771790 -31.136145 -4.016782 -41.113972 -80.398178 37.321412 -18.935737 -17.722569 -21.974241 -16.946518 -3.525643 -3.816897 -3.690580 -30.879230 15.223956 27.296842 -37.152621 -55.367195 11.335891 0.360436 -6.864858 -10.037132 -66.447196 -3.725348 -168.063341 80.670693 -166.574227 -9.219809 -28.752351 7.491195 0.206719 -0.436790 -0.293005 -16.597304 -62.908150 15.319594 74.695109 69.977653 79.364901 -7.305931 -1.777935 -9.471782 -0.204336 0.218957 -0.192128
4.387326 45.117873 11.593044 174.381663 -23.241737 1.333570 9.229394 10.960080 1.645985 0.741496 0.910818 0.079768 1.256920 1.542287 0.142067 8.043610 9.632954 1.469892 2.972685 26.826868 -2.657381 3.875903 3.811605 -3.600802 13.386866 2.532809 -4.047185 4.533783 -31.688597 -4.573411 -33.251324 -76.642870 27.076058 -19.007948 -17.214696 -22.438344 -17.429039 -3.398818 -3.910201 -4.820267 -31.552163 15.657674 25.308651 -35.653807 -51.827520 11.213192 -0.060645 -5.428261 -9.991430 -66.338131 -4.222924 -168.909689 80.622945 -167.230863 -9.215028 -28.743402 7.416129 0.225318 -0.446305 -0.306167 -17.006122 -62.776973 15.472480 74.870052 69.954592 79.263954 -7.338192 -1.739134 -9.426959 -0.242077 0.217407 -0.159909
4.420046 45.117395 11.576699 174.610369 -23.422422 1.371931 9.355012 10.924799 1.505981 0.748574 0.902267 0.069776 1.268893 1.527979 0.125096 8.120510 9.559930 1.364876 2.910124 26.995065 -2.496015 3.770763 4.014153 -3.409284 13.907399 2.519755 -3.652576 6.394569 -32.270486 -5.415112 -30.103636 -72.104381 21.647647 -19.052374 -16.606257 -22.693396 -17.857134 -3.285418 -3.986087 -5.956856 -32.082101 16.111495 23.577856 -33.932041 -48.445524 11.353800 -0.770094 -3.733146 -9.906412 -66.167994 -4.730671 -169.866082 80.585393 -168.028012 -9.239750 -28.745612 7.380772 0.233311 -0.443992 -0.327885 -17.361834 -62.599848 15.627353 75.122291 69.934063 79.204877 -7.358914 -1.699551 -9.360209 -0.315856 0.209264 -0.134952
4.448666 45.116075 11.562797 174.872775 -23.576477 1.367260 9.413994 10.862555 1.376691 0.752870 0.893816 0.059658 1.276155 1.513914 0.108011 8.173634 9.495412 1.257938 2.860256 27.172235 -2.320628 3.676682 4.229165 -3.205330 14.378950 2.480549 -3.327140 8.350233 -32.913227 -6.549487 -29.857528 -66.852446 19.239778 -18.944485 -15.829327 -22.625718 -18.240368 -3.202185 -4.036710 -7.096017 -32.462161 16.560686 22.126875 -31.984076 -45.219832 11.745882 -1.753305 -1.894325 -9.972090 -66.015831 -5.113544 -170.763518 80.552773 -168.787083 -9.245615 -28.760797 7.354408 0.221565 -0.431590 -0.357123 -17.838824 -62.446327 15.896890 75.456949 69.906425 79.197920 -7.442763 -1.650947 -9.305677 -0.353670 0.176549 -0.087468
4.475161 45.113709 11.549856 175.108473 -23.717199 1.332500 9.460560 10.796719 1.273191 0.754434 0.885290 0.049483 1.279005 1.499832 0.090805 8.204711 9.437813 1.149137 2.823318 27.355455 -2.134717 3.594675 4.453262 -2.992864 14.802351 2.445600 -3.085412 10.376778 -33.668218 -7.939977 -31.436865 -60.897565 18.732292 -18.579599 -14.724892 -22.134715 -18.580216 -3.157036 -4.063385 -8.218571 -32.705600 16.971998 20.987557 -29.815676 -42.132416 12.334759 -2.956746 -0.018923 -10.159959 -65.870176 -5.347708 -171.507862 80.528643 -169.410306 -9.253507 -28.770832 7.323054 0.234199 -0.414723 -0.371712 -18.366102 -62.301253 16.265885 75.850882 69.869262 79.240238 -7.552131 -1.605025 -9.257536 -0.332677 0.146289 -0.049552
